<!-- Generated by IcoMoon.io -->
<svg version="1.1" xmlns="http://www.w3.org/2000/svg" width="32" height="32" viewBox="0 0 32 32">
<title>ae</title>
<path fill="#000" d="M1.447 1.583h29.070v28.802h-29.070v-28.802z"></path>
<path fill="#d8a1ff" d="M1.447 1.584h29.070v28.802h-29.070v-28.802zM0.126 31.731h31.719v-31.492h-31.719v31.492zM22.566 15.418c0.673 0 0.915 0 0.978-0.026 0-0.097 0.025-0.162 0.025-0.226 0-0.724-0.343-2.070-1.715-2.070-1.27 0-1.81 1.132-1.944 2.328h2.655v-0.006zM19.885 17.262c0.025 1.817 0.87 3.040 2.884 3.040 0.781 0 1.454-0.11 2.153-0.414 0.095-0.039 0.159-0.026 0.159 0.097v1.682c0 0.136-0.038 0.201-0.133 0.272-0.699 0.349-1.575 0.511-2.655 0.511-3.487 0-4.795-2.626-4.795-5.543 0-3.176 1.613-5.776 4.452-5.776 2.884 0 3.887 2.464 3.887 4.469 0 0.647-0.038 1.171-0.108 1.429-0.025 0.11-0.064 0.149-0.172 0.175-0.267 0.039-1.042 0.097-2.204 0.097h-3.462v-0.039h-0.006zM12.797 15.891c-0.368-1.494-1.27-4.747-1.601-6.326h-0.025c-0.279 1.572-1.004 4.236-1.543 6.326h3.169zM9.088 18.070l-1.042 4.023c-0.025 0.11-0.064 0.149-0.197 0.149h-1.95c-0.133 0-0.159-0.039-0.133-0.201l3.754-13.363c0.064-0.239 0.108-0.433 0.133-1.106 0-0.097 0.038-0.136 0.108-0.136h2.776c0.095 0 0.133 0.026 0.159 0.136l4.198 14.495c0.025 0.11 0 0.175-0.108 0.175h-2.179c-0.108 0-0.172-0.039-0.197-0.136l-1.086-4.036h-4.236z"></path>
</svg>
