<!-- Generated by IcoMoon.io -->
<svg version="1.1" xmlns="http://www.w3.org/2000/svg" width="32" height="32" viewBox="0 0 32 32">
<title>ai</title>
<path fill="#000" d="M1.423 1.583h29.070v28.802h-29.070v-28.802z"></path>
<path fill="#ff7f18" d="M1.423 1.584h29.070v28.802h-29.070v-28.802zM0.102 31.731h31.719v-31.492h-31.719v31.492zM20.878 11.467c0-0.11 0.038-0.162 0.159-0.162h2.077c0.108 0 0.159 0.039 0.159 0.162v10.62c0 0.11-0.025 0.162-0.159 0.162h-2.052c-0.133 0-0.172-0.065-0.172-0.175v-10.607h-0.013zM20.732 8.407c0-0.86 0.597-1.371 1.347-1.371 0.807 0 1.346 0.55 1.346 1.371 0 0.886-0.565 1.371-1.372 1.371-0.762 0.006-1.321-0.479-1.321-1.371zM14.787 15.891c-0.368-1.494-1.245-4.747-1.575-6.326h-0.025c-0.279 1.572-0.978 4.236-1.531 6.326h3.131zM11.116 18.070l-1.042 4.036c-0.025 0.11-0.064 0.136-0.197 0.136h-1.944c-0.133 0-0.159-0.039-0.133-0.201l3.754-13.376c0.064-0.239 0.108-0.459 0.133-1.119 0-0.097 0.038-0.136 0.108-0.136h2.776c0.095 0 0.133 0.026 0.159 0.136l4.205 14.521c0.025 0.11 0 0.175-0.108 0.175h-2.191c-0.108 0-0.172-0.026-0.197-0.123l-1.086-4.049h-4.236z"></path>
</svg>
