<!-- Generated by IcoMoon.io -->
<svg version="1.1" xmlns="http://www.w3.org/2000/svg" width="31" height="32" viewBox="0 0 31 32">
<title>ball</title>
<path stroke-linejoin="miter" stroke-linecap="butt" stroke-miterlimit="4" stroke-width="0.7805" stroke="#000" fill="#000" d="M23.933 6.167l0.239-0.3-0.296-0.244c-2.275-1.879-5.165-3.001-8.327-3.001-1.108 0-2.182 0.155-3.198 0.409l-0.568 0.142 0.349 0.47c1.085 1.46 2.645 3.665 4.512 7.119l0.161 0.298 0.318-0.118c3.534-1.312 5.651-3.319 6.81-4.776zM10.43 4.015l-0.191-0.252-0.286 0.135c-3.509 1.655-6.168 4.817-7.217 8.678l-0.13 0.477 0.494 0.016c1.932 0.061 6.551-0.030 11.67-1.401l0.483-0.129-0.242-0.437c-1.985-3.578-3.655-5.867-4.58-7.086zM25.613 7.339l-0.303-0.36-0.298 0.364c-1.293 1.578-3.537 3.627-7.090 5.017l-0.395 0.155 0.187 0.381c0.766 1.56 1.509 3.221 2.186 5.016l0.112 0.296 0.312-0.048c2.57-0.392 4.946-0.392 6.741-0.252 0.436 0.036 0.718 0.077 1.046 0.124 0.069 0.010 0.14 0.020 0.215 0.031l0.4 0.056 0.043-0.401c0.053-0.492 0.083-0.986 0.083-1.497 0-3.398-1.231-6.495-3.239-8.881zM16.133 13.292l-0.144-0.29-0.311 0.088c-6.020 1.71-11.323 1.658-12.975 1.591l-0.376-0.015-0.029 0.375-0.002 0.026c-0.029 0.372-0.058 0.754-0.058 1.159 0 4.085 1.767 7.731 4.554 10.227l0.291 0.261 0.26-0.291c0.699-0.782 1.636-1.777 2.775-2.816l0.002-0.001c2.143-1.976 4.901-4.067 7.905-4.979l0.403-0.123-0.153-0.393c-0.672-1.723-1.396-3.325-2.142-4.82zM23.539 19.455l-0.004 0c-0.789 0.038-1.629 0.114-2.483 0.228l-0.464 0.062 0.145 0.445c0.721 2.22 1.317 4.571 1.703 7.017l0.097 0.616 0.511-0.356c2.487-1.732 4.368-4.305 5.244-7.326l0.129-0.445-0.46-0.052c-1.139-0.129-2.584-0.258-4.417-0.19zM19.125 20.38l-0.12-0.354-0.359 0.104c-2.639 0.768-5.4 2.759-7.492 4.679-1.011 0.92-1.827 1.793-2.482 2.508l-0.322 0.352 0.408 0.246c1.987 1.198 4.294 1.902 6.783 1.902 1.868 0 3.63-0.395 5.24-1.090l0.272-0.117-0.040-0.293c-0.378-2.789-1.045-5.448-1.888-7.937zM0.677 16.22c0-8.393 6.687-15.219 14.871-15.219s14.871 6.826 14.871 15.219c0 8.393-6.687 15.219-14.871 15.219s-14.871-6.826-14.871-15.219z"></path>
</svg>
