<!-- Generated by IcoMoon.io -->
<svg version="1.1" xmlns="http://www.w3.org/2000/svg" width="33" height="32" viewBox="0 0 33 32">
<title>be</title>
<path stroke-linejoin="miter" stroke-linecap="butt" stroke-miterlimit="4" stroke-width="0.4" stroke="#000" fill="#000" d="M27.456 0h-22.688c-2.592 0-4.7 2.103-4.7 4.688v22.625c0 2.585 2.109 4.688 4.7 4.688h22.688c2.592 0 4.701-2.103 4.701-4.688v-22.625c0-2.585-2.109-4.688-4.701-4.688zM30.276 27.312c0 1.551-1.265 2.812-2.82 2.812h-22.688c-1.555 0-2.82-1.262-2.82-2.812v-22.625c0-1.551 1.265-2.813 2.82-2.813h22.688c1.555 0 2.82 1.262 2.82 2.813v22.625z"></path>
<path stroke-linejoin="miter" stroke-linecap="butt" stroke-miterlimit="4" stroke-width="0.4" stroke="#000" fill="#000" d="M15.172 13.188c0-2.068-1.687-3.75-3.76-3.75h-5.641v13.125h5.641c2.074 0 3.76-1.682 3.76-3.75 0-1.119-0.495-2.125-1.277-2.812 0.782-0.688 1.277-1.693 1.277-2.812zM13.292 18.812c0 1.034-0.843 1.875-1.88 1.875h-3.76v-3.75h3.76c1.037 0 1.88 0.841 1.88 1.875zM7.651 15.062v-3.75h3.76c1.037 0 1.88 0.841 1.88 1.875s-0.843 1.875-1.88 1.875h-3.76z"></path>
<path stroke-linejoin="miter" stroke-linecap="butt" stroke-miterlimit="4" stroke-width="0.4" stroke="#000" fill="#000" d="M21.753 13.188c-2.592 0-4.701 2.103-4.701 4.688s2.109 4.687 4.701 4.687c1.673 0 3.233-0.898 4.071-2.343l-1.628-0.939c-0.503 0.868-1.44 1.407-2.444 1.407-1.226 0-2.271-0.784-2.659-1.875h7.36v-0.937c0-2.585-2.109-4.688-4.7-4.688zM19.094 16.938c0.388-1.091 1.433-1.875 2.659-1.875s2.271 0.784 2.659 1.875h-5.318z"></path>
<path stroke-linejoin="miter" stroke-linecap="butt" stroke-miterlimit="4" stroke-width="0.4" stroke="#000" fill="#000" d="M17.992 9.438h7.521v1.875h-7.521v-1.875z"></path>
</svg>
