<!-- Generated by IcoMoon.io -->
<svg version="1.1" xmlns="http://www.w3.org/2000/svg" width="21" height="32" viewBox="0 0 21 32">
<title>figma</title>
<path fill="#0acf83" d="M5.352 31.88c2.858 0 5.176-2.361 5.176-5.271v-5.271h-5.176c-2.858 0-5.176 2.361-5.176 5.271s2.318 5.271 5.176 5.271z"></path>
<path fill="#a259ff" d="M0.175 16.059c0-2.911 2.318-5.271 5.176-5.271h5.176v10.549h-5.176c-2.858-0.006-5.176-2.367-5.176-5.278z"></path>
<path fill="#f24e1e" d="M0.175 5.51c0-2.911 2.318-5.271 5.176-5.271h5.176v10.549h-5.176c-2.858 0-5.176-2.367-5.176-5.278z"></path>
<path fill="#ff7262" d="M10.534 0.238h5.176c2.858 0 5.176 2.361 5.176 5.271s-2.318 5.271-5.176 5.271h-5.176v-10.543z"></path>
<path fill="#1abcfe" d="M20.887 16.059c0 2.911-2.318 5.271-5.176 5.271s-5.176-2.361-5.176-5.271c0-2.911 2.318-5.271 5.176-5.271s5.176 2.361 5.176 5.271z"></path>
</svg>
