<!-- Generated by IcoMoon.io -->
<svg version="1.1" xmlns="http://www.w3.org/2000/svg" width="31" height="32" viewBox="0 0 31 32">
<title>insta</title>
<path stroke-linejoin="miter" stroke-linecap="butt" stroke-miterlimit="4" stroke-width="0.7805" stroke="#000" fill="#000" d="M9.496 1.009h0.39v-0.008h12.413c4.655 0 8.466 3.89 8.466 8.673v13.092c0 4.783-3.811 8.673-8.459 8.673h-12.811c-4.656 0-8.473-3.884-8.473-8.658v-13.099c0-4.782 3.818-8.673 8.473-8.673zM2.59 9.689v13.1c0 3.892 3.065 7.037 6.906 7.037h12.811c3.827 0 6.891-3.147 6.891-7.052v-13.092c0-3.906-3.064-7.052-6.898-7.052h-12.804c-3.834 0-6.898 3.147-6.906 7.059zM24.509 6.621c0-0.46 0.354-0.81 0.784-0.81s0.784 0.35 0.784 0.81-0.354 0.81-0.784 0.81c-0.429 0-0.784-0.35-0.784-0.81zM8.074 16.224c0-4.414 3.531-8.013 7.828-8.013s7.828 3.598 7.828 8.013c0 4.414-3.531 8.013-7.828 8.013s-7.828-3.598-7.828-8.013zM22.161 16.224c0-3.538-2.779-6.392-6.26-6.392s-6.26 2.854-6.26 6.392 2.779 6.392 6.26 6.392c3.482 0 6.26-2.854 6.26-6.392z"></path>
</svg>
