<!-- Generated by IcoMoon.io -->
<svg version="1.1" xmlns="http://www.w3.org/2000/svg" width="32" height="32" viewBox="0 0 32 32">
<title>ps</title>
<path fill="#000" d="M1.399 1.574h29.037v28.748h-29.037v-28.748z"></path>
<path fill="#31c5f0" d="M1.399 1.574h29.037v28.748h-29.037v-28.748zM0.079 31.666h31.67v-31.436h-31.67v31.436zM21.436 13.131c-1.041 0-1.396 0.536-1.396 0.982 0 0.485 0.235 0.82 1.637 1.557 2.069 1.021 2.716 2.003 2.716 3.437 0 2.151-1.612 3.308-3.789 3.308-1.149 0-2.139-0.239-2.704-0.575-0.095-0.039-0.108-0.11-0.108-0.213v-1.983c0-0.136 0.063-0.174 0.159-0.11 0.831 0.549 1.783 0.795 2.653 0.795 1.041 0 1.479-0.446 1.479-1.047 0-0.485-0.305-0.911-1.637-1.615-1.872-0.911-2.653-1.835-2.653-3.385 0-1.731 1.333-3.172 3.643-3.172 1.136 0 1.929 0.174 2.361 0.375 0.108 0.065 0.133 0.174 0.133 0.271v1.841c0 0.11-0.063 0.174-0.197 0.136-0.584-0.375-1.441-0.601-2.298-0.601zM10.088 14.727c0.305 0.026 0.54 0.026 1.066 0.026 1.542 0 2.996-0.549 2.996-2.688 0-1.706-1.041-2.565-2.799-2.565-0.527 0-1.028 0.026-1.269 0.039l0.006 5.188zM7.733 7.595c0-0.097 0.184-0.162 0.292-0.162 0.844-0.039 2.101-0.065 3.402-0.065 3.656 0 5.084 2.041 5.084 4.645 0 3.411-2.431 4.878-5.414 4.878-0.501 0-0.673-0.026-1.028-0.026v5.155c0 0.11-0.038 0.162-0.159 0.162h-2.018c-0.108 0-0.159-0.039-0.159-0.162v-14.426z"></path>
</svg>
