<!-- Generated by IcoMoon.io -->
<svg version="1.1" xmlns="http://www.w3.org/2000/svg" width="199" height="32" viewBox="0 0 199 32">
<title>stars1</title>
<path fill="#070707" d="M15.162 4.574c0.355-1.091 1.898-1.091 2.254 0l2.075 6.37c0.159 0.488 0.614 0.818 1.127 0.818h6.709c1.149 0 1.626 1.471 0.695 2.145l-5.422 3.928c-0.417 0.302-0.591 0.838-0.432 1.327l2.072 6.361c0.356 1.091-0.893 2-1.822 1.327l-5.435-3.938c-0.415-0.301-0.976-0.301-1.391 0l-5.435 3.938c-0.93 0.674-2.178-0.235-1.822-1.327l2.072-6.36c0.159-0.489-0.015-1.025-0.431-1.327l-5.422-3.928c-0.93-0.674-0.454-2.145 0.695-2.145h6.709c0.513 0 0.968-0.33 1.127-0.818l2.075-6.37z"></path>
<path fill="#070707" d="M56.759 4.574c0.355-1.091 1.898-1.091 2.254 0l2.075 6.37c0.159 0.488 0.614 0.818 1.127 0.818h6.709c1.149 0 1.626 1.471 0.695 2.145l-5.422 3.928c-0.416 0.302-0.591 0.838-0.432 1.327l2.072 6.361c0.356 1.091-0.893 2-1.822 1.327l-5.435-3.938c-0.415-0.301-0.976-0.301-1.391 0l-5.435 3.938c-0.93 0.674-2.178-0.235-1.822-1.327l2.072-6.36c0.159-0.489-0.015-1.025-0.432-1.327l-5.422-3.928c-0.93-0.674-0.453-2.145 0.695-2.145h6.709c0.513 0 0.968-0.33 1.127-0.818l2.075-6.37z"></path>
<path fill="#070707" d="M98.355 4.574c0.355-1.091 1.898-1.091 2.254 0l2.075 6.37c0.159 0.488 0.614 0.818 1.127 0.818h6.709c1.149 0 1.626 1.471 0.695 2.145l-5.422 3.928c-0.417 0.302-0.591 0.838-0.432 1.327l2.072 6.361c0.356 1.091-0.893 2-1.822 1.327l-5.435-3.938c-0.415-0.301-0.976-0.301-1.391 0l-5.435 3.938c-0.929 0.674-2.178-0.235-1.822-1.327l2.072-6.36c0.159-0.489-0.015-1.025-0.432-1.327l-5.422-3.928c-0.93-0.674-0.454-2.145 0.695-2.145h6.709c0.513 0 0.968-0.33 1.127-0.818l2.075-6.37z"></path>
<path fill="#070707" d="M139.953 4.574c0.354-1.091 1.897-1.091 2.253 0l2.075 6.37c0.159 0.488 0.614 0.818 1.127 0.818h6.709c1.148 0 1.626 1.471 0.696 2.145l-5.422 3.928c-0.417 0.302-0.591 0.838-0.431 1.327l2.072 6.361c0.356 1.091-0.892 2-1.822 1.327l-5.435-3.938c-0.415-0.301-0.975-0.301-1.39 0l-5.435 3.938c-0.929 0.674-2.177-0.235-1.822-1.327l2.072-6.36c0.16-0.489-0.014-1.025-0.431-1.327l-5.422-3.928c-0.93-0.674-0.453-2.145 0.696-2.145h6.709c0.513 0 0.967-0.33 1.126-0.818l2.076-6.37z"></path>
<path fill="#e5e5e5" d="M181.549 4.574c0.356-1.091 1.897-1.091 2.253 0l2.075 6.37c0.16 0.488 0.614 0.818 1.127 0.818h6.709c1.148 0 1.626 1.471 0.696 2.145l-5.422 3.928c-0.417 0.302-0.591 0.838-0.431 1.327l2.072 6.361c0.356 1.091-0.892 2-1.822 1.327l-5.435-3.938c-0.415-0.301-0.975-0.301-1.39 0l-5.435 3.938c-0.929 0.674-2.177-0.235-1.822-1.327l2.072-6.36c0.16-0.489-0.014-1.025-0.431-1.327l-5.422-3.928c-0.93-0.674-0.453-2.145 0.696-2.145h6.709c0.513 0 0.968-0.33 1.127-0.818l2.075-6.37z"></path>
</svg>
